<?xml version="1.0" encoding="UTF-8"?>
<svg width="4750px" height="682px" viewBox="0 0 4750 682" version="1.1" xmlns="http://www.w3.org/2000/svg" xmlns:xlink="http://www.w3.org/1999/xlink">
    <!-- Generator: Sketch 41.2 (35397) - http://www.bohemiancoding.com/sketch -->
    <title>horizontal solid copy</title>
    <desc>Created with Sketch.</desc>
    <defs>
        <linearGradient x1="50%" y1="58.9186947%" x2="50%" y2="100.589394%" id="linearGradient-1">
            <stop stop-color="#30BAED" offset="0%"></stop>
            <stop stop-color="#0293CB" offset="100%"></stop>
        </linearGradient>
        <path d="M295,590 C457.924001,590 590,457.924001 590,295 C590,132.075999 457.924001,0 295,0 C132.075999,0 0,132.075999 0,295 C0,457.924001 132.075999,590 295,590 Z" id="path-2"></path>
    </defs>
    <g id="Page-1" stroke="none" stroke-width="1" fill="none" fill-rule="evenodd">
        <g id="horizontal-solid-copy">
            <g id="1" transform="translate(74.000000, 46.000000)">
                <g id="logo">
                    <mask id="mask-3" fill="white">
                        <use xlink:href="#path-2"></use>
                    </mask>
                    <use id="Mask" fill="url(#linearGradient-1)" xlink:href="#path-2"></use>
                    <path d="M208.293781,457.472757 C213.871303,459.382282 223.608863,459.382282 223.608863,459.382282 L412.919565,459.382282 C412.919565,459.382282 437.932053,453.587421 437.932053,421.311598 C437.932053,389.035775 437.953723,192.109916 437.953723,192.109916 C437.953723,192.109916 433.549578,178.304736 417.814477,178.304736 C402.079376,178.304736 398.007931,191.912335 398.007931,191.912335 L398.064019,313.065219 C398.064019,313.065219 393.087525,357.582145 348.634336,357.582145 C314.890039,357.582145 304.626022,332.164297 304.626022,332.164297 C304.626022,332.164297 299.041489,339.07581 292.122327,343.147255 C285.203166,347.218699 275.695055,348.944665 275.695055,348.944665 C275.695055,348.944665 275.017038,365.308343 269.081826,375.103123 C258.669623,392.286205 238.414696,407.22853 238.414696,407.22853 C235.60777,409.422317 230.366135,409.376427 227.036576,405.417157 C223.707016,401.457888 227.036576,395.227073 227.036576,395.227073 L250.301427,372.465735 C250.301427,372.465735 269.321473,349.118027 247.866719,327.016992 C226.411965,304.915956 202.610457,329.069285 202.610457,329.069285 L159.614269,371.674136 C159.614269,371.674136 152.046277,378.824021 152.046277,390.273525 C152.046277,401.723029 158.048917,410.044379 158.048917,410.044379 L198.156598,450.737155 C198.156598,450.737155 202.716259,455.563231 208.293781,457.472757 Z M235.642849,266.431244 C235.642849,266.431244 235.463086,240.011469 267.186513,240.011469 C298.909941,240.011469 298.909938,266.431244 298.909938,266.431244 L298.909938,303.606501 C298.909938,303.606501 302.620894,326.820681 271.989453,331.540957 C271.989453,331.540957 268.308264,323.776663 259.420748,313.761215 C250.533233,303.745767 235.463086,303.606501 235.463086,303.606501 L235.642849,266.431244 Z M153.090522,306.111191 L153.270287,157.037493 C153.270287,157.037493 153.090524,130.617718 184.813952,130.617718 C216.537379,130.617718 216.537376,157.037493 216.537376,157.037493 C216.537376,157.037493 216.537378,235.984393 216.537378,300.598499 C216.537378,300.598499 204.604114,302.988593 195.418507,309.733118 C186.232899,316.477643 152.612251,353.163977 152.612251,353.163977 L153.090522,306.111191 Z M317.633229,275.829474 C317.633229,275.829474 317.453467,249.409699 349.176894,249.409699 C380.900321,249.409699 380.900319,275.829474 380.900319,275.829474 L380.900319,313.004731 C380.900319,313.004731 380.900321,340.606745 349.176894,340.606745 C317.453467,340.606745 317.453467,313.004731 317.453467,313.004731 L317.633229,275.829474 Z" id="Path-4" fill="#FFFFFF" mask="url(#mask-3)"></path>
                </g>
                <g id="pwal" transform="translate(786.000000, 66.000000)" fill="#232323">
                    <g id="p" transform="translate(0.000000, 109.918044)">
                        <path d="M287.503284,108.784507 C287.503284,40.6869285 258.2775,0.0395368159 200.86971,0.0395368159 C160.162368,0.0395368159 139.286809,22.7387296 126.239584,57.0514628 L139.808698,7.42997167 C122.586361,2.67897783 110.582914,0.56742502 78.2257958,0.56742502 C24.471229,0.56742502 0.464335065,12.1809655 0.464335065,41.7427049 C0.464335065,53.3562454 2.55189106,62.3303448 7.24889204,72.3602207 L34.3871199,71.3044443 C32.8214529,83.9737612 30.733897,128.844259 30.733897,187.439849 C30.733897,220.168918 30.212008,252.897986 30.733897,282.987614 C31.7776749,343.694757 40.6497879,348.973639 93.8824657,348.973639 C111.104803,348.973639 129.370918,345.80631 136.677364,342.111093 L136.677364,227.559353 C142.418143,229.670905 158.074812,230.726682 164.33748,230.726682 C242.62083,230.726682 287.503284,186.384073 287.503284,108.784507 L287.503284,108.784507 Z M185.734929,118.814383 C185.734929,145.208793 170.600148,158.405998 149.724589,158.405998 C145.027588,158.405998 140.852476,157.87811 137.199253,155.766557 L137.199253,92.9478607 C145.027588,85.0295376 151.812144,83.445873 161.206146,83.445873 C175.819038,83.445873 185.734929,96.6430781 185.734929,118.814383 L185.734929,118.814383 Z"></path>
                    </g>
                    <g id="a" transform="translate(298.920741, 110.491845)">
                        <path d="M264.71508,151.820333 C259.016713,154.474535 253.318345,155.536215 248.656044,155.536215 C242.957676,155.536215 240.367509,152.351174 240.367509,141.203527 L241.92161,82.8110908 C243.993743,20.7027727 195.816635,0 137.278858,0 C53.3574428,0 15.5410028,26.5420163 15.5410028,59.4541165 C15.5410028,78.0335279 27.4557715,95.5512587 53.8754762,100.328822 C64.2361447,87.5886538 82.885348,77.5026876 111.89522,77.5026876 C133.13459,77.5026876 138.314925,87.0578134 136.760824,104.575544 C130.02639,103.513864 118.629654,101.390502 102.052585,101.390502 C33.1541392,101.390502 0,127.932519 0,172.523106 C0,209.151088 22.2754373,236.223945 72.0066461,236.223945 C115.521454,236.223945 139.869025,219.237055 150.229693,186.855795 C148.675593,193.225879 148.675593,201.188483 148.675593,205.966046 C148.675593,228.79218 165.252663,236.223945 200.996969,236.223945 C254.872445,236.223945 285.436417,217.644534 285.436417,188.448316 C285.436417,173.584787 280.256083,160.313778 264.71508,151.820333 Z M137.796891,142.796048 L137.278858,162.43714 C130.544423,171.992266 121.219821,176.238988 111.377186,176.238988 C101.534551,176.238988 94.8001168,169.338064 94.8001168,161.375459 C94.8001168,150.758653 104.124718,141.203527 120.701788,141.203527 C127.954256,141.203527 132.616557,141.734367 137.796891,142.796048 L137.796891,142.796048 Z"></path>
                    </g>
                    <g id="r" transform="translate(580.551339, 110.491845)">
                        <path d="M217.155959,41.6865785 C217.155959,16.5677427 205.644077,0 177.387639,0 C149.654468,0 128.723773,13.3610829 112.502485,58.7887646 L125.584169,5.34443314 C117.735158,2.13777326 97.8509983,0 80.0599077,0 C23.0237643,0 0,12.2921962 0,42.2210218 C0,53.9787748 2.09306948,63.5987544 6.80247582,73.7531774 L34.0123791,72.6842908 C31.9193096,105.285333 30.3495075,137.886375 30.3495075,168.349644 C30.3495075,230.345069 40.2915876,236.223945 96.8044636,236.223945 C119.828228,236.223945 139.189121,233.017285 146.514864,229.276182 L146.514864,103.14756 C158.026746,96.1997966 176.864371,92.4586934 200.411403,92.4586934 C211.400018,78.5631672 217.155959,64.6676411 217.155959,41.6865785 L217.155959,41.6865785 Z"></path>
                    </g>
                    <g id="t" transform="translate(801.288835, 41.910700)">
                        <path d="M224.128481,251.450993 C224.128481,236.659758 217.304897,221.340265 199.983492,212.359872 C184.761651,218.170715 167.965138,221.340265 153.268188,221.340265 C142.245476,221.340265 135.421892,220.283748 135.421892,198.096896 L135.946783,147.38409 C135.946783,147.38409 160.091772,148.440607 167.965138,148.440607 C206.807076,148.440607 221.504025,133.649372 221.504025,105.123419 C221.504025,90.3321845 216.255115,79.7670167 211.531095,73.427916 L137.521457,74.4844328 L142.770367,10.0369094 C127.548526,3.16955033 106.552884,0 82.4078957,0 C49.8646503,0 30.4436812,13.2064597 30.4436812,49.1280302 L29.9187902,74.4844328 C11.5476032,74.4844328 0,87.6908925 0,110.934262 C0,122.555946 4.19912844,137.347181 8.92314794,144.742799 L30.4436812,145.271057 C30.4436812,165.873134 29.9187902,206.54903 29.9187902,231.905433 C29.9187902,287.900822 55.1135608,304.80509 117.575596,304.80509 C187.386107,304.80509 224.128481,287.900822 224.128481,251.450993 L224.128481,251.450993 Z"></path>
                    </g>
                    <g id="t" transform="translate(1021.541056, 110.491845)">
                        <path d="M285.769459,36.8010797 C285.769459,13.1432428 272.844037,0 237.299124,0 C225.45082,0 213.063957,2.10291884 205.524127,5.78302681 C188.828789,59.4074572 175.903367,95.6828072 159.746588,137.741184 L137.127099,35.7496203 C131.741506,12.617513 113.43049,0.52572971 74.6542223,0.52572971 C25.645328,0.52572971 4.10295688,18.9262696 4.10295688,41.0069174 C4.10295688,53.0987007 5.71863471,61.5103761 10.0271089,72.0249703 L31.56948,71.4992406 L67.6529517,191.365614 C73.5771037,212.394803 85.4254078,221.332208 104.813542,226.063775 C89.7338821,246.567234 49.3419362,258.133288 10.0271089,258.133288 C3.02583832,268.122152 0.333041931,277.585287 0.333041931,292.831449 C0.333041931,321.220853 20.2597352,339.095663 56.8817661,339.095663 C121.508879,339.095663 170.517774,303.871772 232.99065,179.799561 C267.458444,111.980428 285.769459,58.3559978 285.769459,36.8010797 L285.769459,36.8010797 Z" id="y"></path>
                    </g>
                    <g id="w" transform="translate(1299.851111, 106.681782)">
                        <path d="M414.83426,36.0058254 C414.83426,11.9558762 402.263525,0.198123309 371.360467,0.198123309 C357.21839,0.198123309 345.171436,2.33589657 336.790946,6.07699977 C326.315333,40.2813719 299.07874,140.756715 299.07874,140.756715 L277.603734,36.0058254 C272.365928,10.3525463 260.842754,1.26700994 221.559207,1.26700994 C208.464691,1.26700994 184.894563,5.00811314 176.514073,11.9558762 L149.27748,145.032262 L128.326255,35.4713821 C123.612229,11.9558762 106.327468,0.732566623 68.6152627,0.732566623 C20.9512252,0.732566623 0,19.4380826 0,41.8847018 C0,54.1768981 1.57134189,62.7279911 5.76158694,73.4168574 L24.6176897,72.8824141 L57.6158694,190.994387 C66.5201401,223.060985 82.2335591,236.422068 131.992719,236.422068 C148.753699,236.422068 171.276266,234.284295 183.323221,230.008749 L208.988472,133.808952 L225.225671,195.804376 C234.129942,230.543192 250.890922,235.887625 293.317153,235.887625 C310.601914,235.887625 336.790946,232.680965 347.266558,228.939862 L398.59706,101.20791 C410.120234,72.3479708 414.83426,58.9868879 414.83426,36.0058254 L414.83426,36.0058254 Z"></path>
                    </g>
                    <g id="i" transform="translate(1714.685370, 0.000000)">
                        <path d="M148.426937,45.3844109 C148.426937,17.4149484 128.952481,0 93.1615881,0 C55.7916855,0 30.0011894,19.5258512 30.0011894,49.0784909 C30.0011894,85.4915647 53.6863389,94.4629018 86.3192116,94.4629018 C128.426144,94.4629018 148.426937,75.4647763 148.426937,45.3844109 L148.426937,45.3844109 Z M140.531887,339.855356 L140.531887,135.625507 C140.531887,116.099656 114.741391,112.405576 76.8451518,112.405576 C26.8431695,112.405576 0,124.543267 0,151.985004 C0,168.872227 2.63168328,177.843564 6.84237653,185.759449 L34.2118826,184.703998 C32.106536,216.895266 30.527526,249.61426 30.527526,279.694625 C30.527526,340.910807 37.8962392,346.71579 94.7405981,346.71579 C112.109708,346.71579 133.163174,343.549436 140.531887,339.855356 L140.531887,339.855356 Z"></path>
                    </g>
                    <g id="t-copy" transform="translate(1878.335583, 41.910700)">
                        <path d="M224.128481,251.450993 C224.128481,236.659758 217.304897,221.340265 199.983492,212.359872 C184.761651,218.170715 167.965138,221.340265 153.268188,221.340265 C142.245476,221.340265 135.421892,220.283748 135.421892,198.096896 L135.946783,147.38409 C135.946783,147.38409 160.091772,148.440607 167.965138,148.440607 C206.807076,148.440607 221.504025,133.649372 221.504025,105.123419 C221.504025,90.3321845 216.255115,79.7670167 211.531095,73.427916 L137.521457,74.4844328 L142.770367,10.0369094 C127.548526,3.16955033 106.552884,0 82.4078957,0 C49.8646503,0 30.4436812,13.2064597 30.4436812,49.1280302 L29.9187902,74.4844328 C11.5476032,74.4844328 0,87.6908925 0,110.934262 C0,122.555946 4.19912844,137.347181 8.92314794,144.742799 L30.4436812,145.271057 C30.4436812,165.873134 29.9187902,206.54903 29.9187902,231.905433 C29.9187902,287.900822 55.1135608,304.80509 117.575596,304.80509 C187.386107,304.80509 224.128481,287.900822 224.128481,251.450993 L224.128481,251.450993 Z" id="t"></path>
                    </g>
                    <g id="h" transform="translate(2118.102173, 0.000000)">
                        <path d="M293.048055,308.527364 C293.048055,298.835405 291.449611,286.451235 287.187094,277.836161 L257.349474,278.913045 C260.546362,230.991692 260.013547,204.608025 260.013547,185.224107 C260.013547,132.456774 231.774371,110.919087 187.017941,110.919087 C149.188101,110.919087 127.3427,124.380142 111.891076,151.30225 L111.891076,8.61507475 C96.9722655,3.23065303 79.3893822,0 57.0111671,0 C17.0500687,0 3.72970252,11.8457278 1.06562929,65.1515028 C0.532814646,84.535421 0,130.841448 0,183.608781 C0,220.76129 0.532814646,251.452494 1.06562929,282.143698 C2.66407323,344.60299 10.6562929,350.525854 68.2002746,350.525854 C85.7831579,350.525854 103.898856,347.295201 111.891076,343.526106 L111.891076,207.300236 C117.219222,199.762046 127.3427,196.531393 134.802105,196.531393 C146.524028,196.531393 150.25373,201.915814 150.25373,218.607522 C150.25373,240.683651 148.655286,259.529127 148.655286,277.836161 C148.655286,344.064548 153.450618,350.525854 225.91341,350.525854 C271.202655,350.525854 293.048055,339.75701 293.048055,308.527364 L293.048055,308.527364 Z"></path>
                    </g>
                    <g id="a-copy" transform="translate(2407.344409, 110.491845)">
                        <path d="M264.71508,151.820333 C259.016713,154.474535 253.318345,155.536215 248.656044,155.536215 C242.957676,155.536215 240.367509,152.351174 240.367509,141.203527 L241.92161,82.8110908 C243.993743,20.7027727 195.816635,0 137.278858,0 C53.3574428,0 15.5410028,26.5420163 15.5410028,59.4541165 C15.5410028,78.0335279 27.4557715,95.5512587 53.8754762,100.328822 C64.2361447,87.5886538 82.885348,77.5026876 111.89522,77.5026876 C133.13459,77.5026876 138.314925,87.0578134 136.760824,104.575544 C130.02639,103.513864 118.629654,101.390502 102.052585,101.390502 C33.1541392,101.390502 0,127.932519 0,172.523106 C0,209.151088 22.2754373,236.223945 72.0066461,236.223945 C115.521454,236.223945 139.869025,219.237055 150.229693,186.855795 C148.675593,193.225879 148.675593,201.188483 148.675593,205.966046 C148.675593,228.79218 165.252663,236.223945 200.996969,236.223945 C254.872445,236.223945 285.436417,217.644534 285.436417,188.448316 C285.436417,173.584787 280.256083,160.313778 264.71508,151.820333 Z M137.796891,142.796048 L137.278858,162.43714 C130.544423,171.992266 121.219821,176.238988 111.377186,176.238988 C101.534551,176.238988 94.8001168,169.338064 94.8001168,161.375459 C94.8001168,150.758653 104.124718,141.203527 120.701788,141.203527 C127.954256,141.203527 132.616557,141.734367 137.796891,142.796048 L137.796891,142.796048 Z" id="a"></path>
                    </g>
                    <g id="l" transform="translate(2702.695685, 0.000000)">
                        <path d="M153.952286,305.173806 C153.952286,295.587194 152.840987,283.337635 147.840141,274.816202 L117.279415,275.881381 L117.279415,7.98884309 C101.721228,2.6629477 82.8291428,0 59.4918613,0 C17.8181444,0 4.48255498,11.7169699 1.70430718,64.4433343 C1.14865762,86.2795054 0.593008064,144.331765 0.593008064,203.981794 C0.593008064,256.708158 1.70430718,299.315321 5.03820454,318.488545 C8.92775145,341.389895 20.0407426,346.71579 74.4943994,346.71579 C131.726304,346.71579 153.952286,336.063999 153.952286,305.173806 L153.952286,305.173806 Z"></path>
                    </g>
                    <g id="o" transform="translate(2852.625220, 114.301909)">
                        <path d="M262.601504,109.504903 C262.601504,38.8895916 225.833841,0 140.943795,0 C46.8618328,0 0.361552795,55.7758616 0.361552795,127.926288 C0.361552795,198.029894 44.6990291,229.243908 127.426271,229.243908 C209.072112,229.243908 262.601504,186.772381 262.601504,109.504903 L262.601504,109.504903 Z M166.356738,114.621954 C166.356738,140.718917 151.757813,153.511546 134.996084,153.511546 C117.152954,153.511546 104.716832,142.254032 104.716832,117.692185 C104.716832,93.1303378 119.315757,78.8025935 137.158888,78.8025935 C155.002019,78.8025935 166.356738,89.5484017 166.356738,114.621954 L166.356738,114.621954 Z"></path>
                    </g>
                    <g id="c" transform="translate(3115.226724, 99.061654)">
                        <path d="M247.378228,205.895164 C247.378228,184.375048 236.159261,170.997679 220.452707,162.273307 C202.502359,169.252804 175.576838,173.324178 158.187438,173.324178 C127.335279,173.324178 116.67726,159.365184 116.67726,135.518569 C116.67726,115.743327 132.383814,93.641586 169.967354,93.641586 C189.600547,93.641586 206.428998,96.5497098 217.087017,100.039458 C233.354519,90.1518374 242.890641,73.2847194 242.890641,52.9278529 C242.890641,22.6833655 219.891758,0 159.309335,0 C53.8510429,0 0,59.3257253 0,145.406189 C0,222.762282 43.7539723,262.89439 127.335279,262.89439 C204.185204,262.89439 247.378228,243.700773 247.378228,205.895164 L247.378228,205.895164 Z"></path>
                    </g>
                    <g id="a-copy-2" transform="translate(3366.410771, 110.491845)">
                        <path d="M264.71508,151.820333 C259.016713,154.474535 253.318345,155.536215 248.656044,155.536215 C242.957676,155.536215 240.367509,152.351174 240.367509,141.203527 L241.92161,82.8110908 C243.993743,20.7027727 195.816635,0 137.278858,0 C53.3574428,0 15.5410028,26.5420163 15.5410028,59.4541165 C15.5410028,78.0335279 27.4557715,95.5512587 53.8754762,100.328822 C64.2361447,87.5886538 82.885348,77.5026876 111.89522,77.5026876 C133.13459,77.5026876 138.314925,87.0578134 136.760824,104.575544 C130.02639,103.513864 118.629654,101.390502 102.052585,101.390502 C33.1541392,101.390502 0,127.932519 0,172.523106 C0,209.151088 22.2754373,236.223945 72.0066461,236.223945 C115.521454,236.223945 139.869025,219.237055 150.229693,186.855795 C148.675593,193.225879 148.675593,201.188483 148.675593,205.966046 C148.675593,228.79218 165.252663,236.223945 200.996969,236.223945 C254.872445,236.223945 285.436417,217.644534 285.436417,188.448316 C285.436417,173.584787 280.256083,160.313778 264.71508,151.820333 Z M137.796891,142.796048 L137.278858,162.43714 C130.544423,171.992266 121.219821,176.238988 111.377186,176.238988 C101.534551,176.238988 94.8001168,169.338064 94.8001168,161.375459 C94.8001168,150.758653 104.124718,141.203527 120.701788,141.203527 C127.954256,141.203527 132.616557,141.734367 137.796891,142.796048 L137.796891,142.796048 Z" id="a"></path>
                    </g>
                    <g id="l-copy" transform="translate(3661.762047, 0.000000)">
                        <path d="M153.952286,305.173806 C153.952286,295.587194 152.840987,283.337635 147.840141,274.816202 L117.279415,275.881381 L117.279415,7.98884309 C101.721228,2.6629477 82.8291428,0 59.4918613,0 C17.8181444,0 4.48255498,11.7169699 1.70430718,64.4433343 C1.14865762,86.2795054 0.593008064,144.331765 0.593008064,203.981794 C0.593008064,256.708158 1.70430718,299.315321 5.03820454,318.488545 C8.92775145,341.389895 20.0407426,346.71579 74.4943994,346.71579 C131.726304,346.71579 153.952286,336.063999 153.952286,305.173806 L153.952286,305.173806 Z" id="l"></path>
                    </g>
                </g>
            </g>
        </g>
    </g>
</svg>