<?xml version="1.0" standalone="no"?>
<!DOCTYPE svg PUBLIC "-//W3C//DTD SVG 20010904//EN"
 "http://www.w3.org/TR/2001/REC-SVG-20010904/DTD/svg10.dtd">
<svg version="1.0" xmlns="http://www.w3.org/2000/svg"
 width="1024.000000pt" height="1024.000000pt" viewBox="0 0 1024.000000 1024.000000"
 preserveAspectRatio="xMidYMid meet">
<metadata>
Created by potrace 1.11, written by Peter Selinger 2001-2013
</metadata>
<g transform="translate(0.000000,1024.000000) scale(0.100000,-0.100000)"
fill="#000000" stroke="none">
<path d="M4829 10106 c-2 -2 -50 -7 -105 -11 -56 -3 -113 -8 -125 -10 -13 -2
-53 -6 -89 -10 -410 -41 -903 -169 -1320 -343 -204 -85 -459 -211 -582 -289
-21 -12 -40 -23 -42 -23 -10 0 -268 -170 -371 -244 -96 -69 -301 -229 -315
-245 -3 -3 -43 -40 -90 -81 -135 -118 -336 -323 -475 -485 -296 -344 -579
-792 -760 -1205 -20 -47 -43 -98 -50 -115 -34 -77 -115 -303 -159 -445 -33
-109 -83 -296 -92 -350 -3 -14 -9 -41 -14 -60 -11 -41 -13 -56 -39 -210 -23
-131 -27 -163 -36 -240 -3 -30 -8 -68 -10 -85 -27 -221 -26 -888 1 -1020 3
-11 6 -42 9 -70 6 -63 25 -199 39 -270 2 -11 9 -51 16 -90 6 -38 16 -83 20
-100 9 -29 11 -40 26 -110 11 -52 85 -319 94 -340 5 -11 12 -31 15 -45 16 -59
82 -236 142 -380 193 -462 482 -931 798 -1295 33 -38 71 -83 85 -99 57 -68
342 -348 437 -429 458 -393 955 -691 1478 -888 44 -17 97 -37 118 -45 161 -61
472 -146 687 -189 82 -17 326 -55 385 -60 39 -3 81 -8 95 -10 86 -13 239 -19
480 -20 270 0 450 9 584 29 17 2 58 8 91 12 33 3 67 8 77 10 9 1 38 6 65 10
26 3 57 8 68 11 11 2 43 8 70 13 75 15 84 17 165 35 754 170 1528 559 2100
1055 36 31 76 65 89 76 48 39 340 332 412 414 482 549 838 1186 1037 1855 37
126 55 187 58 200 57 243 91 422 110 575 5 42 16 134 20 160 26 202 26 780 0
995 -2 17 -7 57 -11 90 -3 33 -8 74 -11 90 -2 17 -6 44 -8 60 -6 44 -25 149
-42 235 -9 41 -18 89 -21 105 -9 57 -84 330 -124 455 -135 419 -344 850 -594
1222 -86 126 -201 286 -216 298 -3 3 -23 28 -44 55 -135 179 -440 494 -645
667 -125 105 -149 124 -294 230 -50 37 -95 71 -101 75 -25 20 -289 187 -370
233 -125 72 -448 230 -580 283 -216 87 -464 169 -645 213 -8 2 -42 10 -75 18
-69 17 -256 56 -300 63 -16 2 -68 10 -115 18 -80 13 -111 17 -255 30 -33 4
-76 8 -95 11 -41 6 -645 15 -651 10z"/>
</g>
</svg>
